<svg xmlns="http://www.w3.org/2000/svg" xmlns:svgjs="http://svgjs.com/svgjs" xmlns:xlink="http://www.w3.org/1999/xlink" width="288" height="288"><svg xmlns="http://www.w3.org/2000/svg" width="288" height="288" viewBox="0 0 10.417 14.583"><path fill="#0e1ff7" d="M10.169,0H.248A.236.236,0,0,0,0,.251V14.32a.265.265,0,0,0,.124.226.223.223,0,0,0,.248,0l4.836-2.939,4.836,2.939a.184.184,0,0,0,.124.025.221.221,0,0,0,.124-.025.265.265,0,0,0,.124-.226V.251A.236.236,0,0,0,10.169,0Z" class="colorcc9d76 svgShape"/></svg></svg>