<svg xmlns="http://www.w3.org/2000/svg" xmlns:xlink="http://www.w3.org/1999/xlink" width="81" height="81" viewBox="0 0 81 81"><defs><linearGradient id="a" x1="0.67" y1="0.091" x2="0.418" y2="0.832" gradientUnits="objectBoundingBox"><stop offset="0" stop-color="#f5a623"/><stop offset="1" stop-color="#ef0b38"/></linearGradient></defs><g transform="translate(1494 14867)"><rect width="81" height="81" rx="13" transform="translate(-1494 -14867)" fill="#fff"/><path d="M-32.951,345.624c.954-6.328-4.243-9.835-13.257-11.591l1.585-3.426c.491-1.158-.013-2.1-1.845-2.246-1.939-.138-2.933.475-3.53,1.765l-1.489,3.25-.08-.01c-12.257-.312-25.208,3.413-25.524,12.07-.241,4.774,3.225,7.148,6.876,7.507,2,.55,5.312-1.859,1.013-3.828-1.821-.8-2.914-2.076-2.7-4.278.664-4.407,9.554-7.964,18.576-7.768l.144.01-8.285,18.076c-1.8,4.078-4.71,7.4-9.225,7.54-3.273-.07-5.655-1.442-6.9-4.733-1.126-3.091-6.176-1.123-4.974,2.166,1.757,4.548,5.856,7.117,11.712,7.059,7.42-.18,12.137-5.014,14.84-11.952l8.223-17.779.092.007c6.045,1.308,10.21,3.456,9.288,7.881-.928,3.557-3.8,5.239-10.133,3.321-1.6-.632-4.3,1.67-1.783,3.306C-44.735,355.251-34.588,353.058-32.951,345.624Z" transform="translate(-1397.286 -15176.158)" fill="url(#a)"/></g></svg>